HIERARCHY
ROOT Hips
{
	OFFSET 0.00 0.00 0.00
	CHANNELS 6 Xposition Yposition Zposition Xrotation Yrotation Zrotation
	JOINT RightUpLeg
	{
		OFFSET -3.76699 0.00000 0.00000
		CHANNELS 3 Xrotation Yrotation Zrotation
		JOINT RightLeg
		{
			OFFSET 0.00000 -18.01768 0.00000
			CHANNELS 3 Xrotation Yrotation Zrotation
			JOINT RightFoot
			{
				OFFSET 0.00000 -16.88108 0.00000
				CHANNELS 3 Xrotation Yrotation Zrotation
				JOINT RightToeBase
				{
					OFFSET 0.00000 -1.49359 5.57418
					CHANNELS 3 Xrotation Yrotation Zrotation
					End Site
					{
						OFFSET 0.00000 0.00000 2.95275
					}
				}
			}
		}
	}
	JOINT LeftUpLeg
	{
		OFFSET 3.76699 0.00000 0.00000
		CHANNELS 3 Xrotation Yrotation Zrotation
		JOINT LeftLeg
		{
			OFFSET 0.00000 -18.01768 0.00000
			CHANNELS 3 Xrotation Yrotation Zrotation
			JOINT LeftFoot
			{
				OFFSET 0.00000 -16.88108 0.00000
				CHANNELS 3 Xrotation Yrotation Zrotation
				JOINT LeftToeBase
				{
					OFFSET 0.00000 -1.49359 5.57418
					CHANNELS 3 Xrotation Yrotation Zrotation
					End Site
					{
						OFFSET 0.00000 0.00000 2.95275
					}
				}
			}
		}
	}
	JOINT Spine
	{
		OFFSET 0.00000 7.77970 0.00000
		CHANNELS 3 Xrotation Yrotation Zrotation
		JOINT RightShoulder
		{
			OFFSET 0.00000 10.94176 0.00000
			CHANNELS 3 Xrotation Yrotation Zrotation
			JOINT RightArm
			{
				OFFSET -7.70894 0.00000 0.00000
				CHANNELS 3 Xrotation Yrotation Zrotation
				JOINT RightForeArm
				{
					OFFSET -11.52135 0.00000 0.00000
					CHANNELS 3 Yrotation Zrotation Xrotation
					JOINT RightHand
					{
						OFFSET -10.17590 0.00000 0.00000
						CHANNELS 3 Xrotation Yrotation Zrotation
						End Site
						{
							OFFSET -3.93700 0.00000 0.00000
						}
						JOINT RightHandThumb1
						{
							OFFSET 0.00000 0.00000 0.00000
							CHANNELS 3 Xrotation Zrotation Yrotation
							End Site
							{
								OFFSET 0.00000 0.00000 3.93700
							}
						}
					}
				}
			}
		}
		JOINT LeftShoulder
		{
			OFFSET 0.00000 10.94176 0.00000
			CHANNELS 3 Xrotation Yrotation Zrotation
			JOINT LeftArm
			{
				OFFSET 7.70894 0.00000 0.00000
				CHANNELS 3 Xrotation Yrotation Zrotation
				JOINT LeftForeArm
				{
					OFFSET 11.52135 0.00000 0.00000
					CHANNELS 3 Yrotation Zrotation Xrotation
					JOINT LeftHand
					{
						OFFSET 10.17590 0.00000 0.00000
						CHANNELS 3 Xrotation Yrotation Zrotation
						End Site
						{
							OFFSET 3.93700 0.00000 0.00000
						}
						JOINT LeftHandThumb1
						{
							OFFSET 0.00000 0.00000 0.00000
							CHANNELS 3 Xrotation Zrotation Yrotation
							End Site
							{
								OFFSET 0.00000 0.00000 3.93700
							}
						}
					}
				}
			}
		}
		JOINT Head
		{
			OFFSET 0.00000 16.64604 0.00000
			CHANNELS 3 Xrotation Yrotation Zrotation
			End Site
			{
				OFFSET 0.00000 4.52755 0.00000
			}
		}
	}
}
MOTION
Frames: 11
Frame Time: 0.008333
 1.4608 37.0050 4.3669 4.2053 6.7609 2.2690 7.5705 -13.1812 -2.5525 -6.2426 0.0000 0.0000 -9.8278 -23.8387 9.2586 14.3251 -0.0000 0.0000 4.0193 -1.3879 2.9666 -3.8967 0.0000 -0.0000 -3.8743 15.4880 -14.9184 5.8772 -0.0000 -0.0000 -8.1204 1.1395 -3.0438 -22.6432 0.3834 -46.6662 -113.4639 -8.4767 19.8339 131.6227 0.0000 -80.1720 13.0500 26.3390 -27.5833 32.8623 0.0000 -24.3270 35.3684 17.3976 -5.2177 -30.5548 -11.3348 -78.2209 -32.1210 -0.0000 29.7418 4.0666 15.8486 -14.5920 33.1476 -0.0000 26.2537 29.7566 -22.8818 4.8220
 1.4847 37.0062 4.3889 4.1771 6.9104 2.3066 7.6417 -13.2820 -2.5972 -6.2520 0.0000 -0.0000 -9.8375 -23.9203 9.2483 14.3591 0.0000 -0.0000 4.0681 -1.5135 2.9102 -3.9106 0.0000 0.0000 -3.8618 15.4447 -14.9209 5.9030 0.0000 0.0000 -8.2975 1.2092 -2.9695 -22.8302 0.5771 -46.5838 -113.3603 -9.1692 19.5058 132.6487 0.0000 -80.8361 13.2183 26.7074 -27.5926 32.8623 0.0000 -24.3270 35.3557 17.2830 -5.1710 -30.4762 -11.4741 -78.1925 -31.9637 -0.0000 29.6583 4.0480 15.7453 -14.6168 33.1476 -0.0000 26.2537 29.7901 -23.1503 4.4213
 1.5072 37.0064 4.4100 4.1587 7.0574 2.3354 7.7100 -13.3534 -2.6410 -6.2612 0.0000 0.0000 -9.8254 -24.0018 9.3399 14.3071 -0.0000 0.0000 4.1053 -1.6489 2.8663 -3.9203 0.0000 -0.0000 -3.8667 15.4210 -14.9350 5.9084 -0.0000 -0.0000 -8.4905 1.2647 -2.8854 -22.9917 0.8100 -46.4971 -113.2082 -9.7806 19.1932 133.6925 0.0000 -81.3445 13.5828 27.0368 -27.9915 32.8623 0.0000 -24.3270 35.3497 17.1764 -5.1394 -30.3798 -11.6146 -78.1445 -31.8376 -0.0000 29.6160 4.0780 15.7172 -14.7451 33.1476 -0.0000 26.2537 29.7899 -23.1689 4.1143
 1.5319 37.0046 4.4322 4.1321 7.2018 2.3707 7.7839 -13.4947 -2.6877 -6.2695 0.0000 0.0000 -9.8541 -24.0137 9.3744 14.3527 -0.0000 -0.0000 4.1512 -1.7849 2.8136 -3.9266 -0.0000 -0.0000 -3.8812 15.3959 -14.9377 5.8650 0.0000 0.0000 -8.6713 1.3158 -2.8034 -22.6957 0.6982 -46.2947 -113.6239 -10.0883 18.8422 134.6401 0.0000 -81.7884 13.8381 27.2901 -28.2471 32.8623 0.0000 -24.3270 35.3871 17.0891 -5.1209 -30.3330 -11.7603 -78.1269 -31.6829 -0.0000 29.7861 4.0656 15.6699 -14.7437 33.1476 -0.0000 26.2537 29.7810 -23.2078 3.8063
 1.5537 37.0033 4.4533 4.0974 7.3572 2.4028 7.8561 -13.6389 -2.7210 -6.2659 -0.0000 -0.0000 -9.8650 -24.0422 9.3463 14.2863 0.0000 -0.0000 4.1989 -1.9376 2.7697 -3.9256 -0.0000 -0.0000 -3.9002 15.3764 -14.9138 5.7953 -0.0000 0.0000 -8.8450 1.3267 -2.7126 -22.7596 0.9001 -46.0845 -113.4669 -10.3770 18.6620 135.5861 0.0000 -82.0478 14.2344 27.6251 -28.6826 32.8623 0.0000 -24.3270 35.3880 16.9852 -5.1080 -30.2297 -11.8267 -78.0780 -31.5756 -0.0000 29.8301 4.1670 15.6140 -15.1461 33.1476 -0.0000 26.2537 29.7585 -23.1600 3.5005
 1.5735 37.0026 4.4757 4.0599 7.4861 2.4317 7.9449 -13.7088 -2.7424 -6.3060 -0.0000 0.0000 -9.8489 -24.1748 9.2993 14.2921 0.0000 -0.0000 4.2629 -2.0500 2.7301 -3.9407 -0.0000 0.0000 -3.9090 15.3401 -14.9229 5.8266 -0.0000 0.0000 -9.0394 1.3855 -2.6191 -22.9899 1.2615 -45.9369 -112.9754 -10.7274 18.5374 136.5509 0.0000 -82.1206 14.5316 27.9621 -28.9342 32.8623 0.0000 -24.3270 35.3820 16.8537 -5.0515 -30.1223 -11.8525 -78.0405 -31.4257 -0.0000 29.7478 4.1034 15.5766 -14.9579 33.1476 -0.0000 26.2537 29.7508 -23.1901 3.2120
 1.5966 37.0009 4.4979 4.0324 7.5949 2.4605 7.9975 -13.8002 -2.7806 -6.2839 0.0000 -0.0000 -9.8689 -24.2083 9.2570 14.2387 0.0000 -0.0000 4.3125 -2.1383 2.6825 -3.9437 0.0000 0.0000 -3.9359 15.3096 -14.9260 5.8914 -0.0000 0.0000 -9.2328 1.4675 -2.5247 -22.5862 1.0888 -45.6484 -113.3381 -10.7060 18.4140 137.3877 0.0000 -81.9374 14.8803 28.1566 -29.3832 32.8623 0.0000 -24.3270 35.3802 16.7458 -4.9737 -30.0306 -11.8405 -78.0459 -31.2702 -0.0000 29.7834 4.0909 15.5716 -14.9188 33.1476 -0.0000 26.2537 29.7574 -23.2416 2.9530
 1.6177 36.9996 4.5181 4.0035 7.7251 2.5035 8.0566 -13.8715 -2.8352 -6.2679 0.0000 0.0000 -9.9030 -24.2767 9.2758 14.2271 -0.0000 -0.0000 4.3510 -2.2648 2.6259 -3.9346 0.0000 0.0000 -3.9507 15.2938 -14.9101 5.8259 0.0000 -0.0000 -9.4292 1.5010 -2.4433 -22.2997 1.0641 -45.4038 -113.4717 -10.6964 18.3162 138.2341 0.0000 -81.9387 15.1714 28.4092 -29.6805 32.8623 0.0000 -24.3270 35.4084 16.6558 -4.9093 -29.9673 -11.8664 -78.0550 -31.0851 -0.0000 29.8042 4.1130 15.4528 -15.1033 33.1476 -0.0000 26.2537 29.7490 -23.2604 2.6560
 1.6412 36.9976 4.5376 3.9780 7.8369 2.5567 8.1057 -13.9778 -2.9058 -6.2591 0.0000 -0.0000 -9.9336 -24.2859 9.2713 14.2427 -0.0000 0.0000 4.3942 -2.3779 2.5506 -3.9399 0.0000 -0.0000 -3.9695 15.2872 -14.8695 5.8209 -0.0000 0.0000 -9.6067 1.5635 -2.3793 -21.9845 0.9938 -45.1464 -113.6399 -10.5993 18.2754 139.0561 0.0000 -82.1527 15.5016 28.6959 -30.0120 32.8623 0.0000 -24.3270 35.4573 16.6127 -4.8575 -29.9801 -11.9161 -78.0868 -30.8618 -0.0000 29.7895 4.0560 15.5594 -14.8074 33.1476 -0.0000 26.2537 29.7078 -23.3484 2.3972
 1.6670 36.9966 4.5561 3.9588 7.9534 2.6095 8.1483 -14.0853 -2.9783 -6.2583 -0.0000 0.0000 -9.9688 -24.3414 9.3196 14.3555 -0.0000 0.0000 4.4215 -2.4712 2.4735 -3.9312 0.0000 0.0000 -3.9663 15.2542 -14.8941 5.7833 0.0000 0.0000 -9.7879 1.6836 -2.2647 -22.2753 1.3098 -45.1649 -112.9566 -10.8468 18.3608 139.9849 0.0000 -82.6202 15.4475 29.0184 -29.6685 32.8623 0.0000 -24.3270 35.4478 16.4757 -4.8062 -29.9222 -11.9662 -78.0563 -30.6550 -0.0000 29.8859 4.0642 15.4590 -14.9259 33.1476 -0.0000 26.2537 29.6375 -23.4598 2.0695
 1.6915 36.9974 4.5765 3.9195 8.0519 2.6690 8.2174 -14.1657 -3.0515 -6.2618 0.0000 -0.0000 -9.9648 -24.3894 9.3343 14.2577 -0.0000 0.0000 4.4764 -2.5380 2.3918 -3.9335 -0.0000 0.0000 -3.9580 15.2106 -14.8619 5.7306 -0.0000 0.0000 -9.9383 1.7268 -2.1745 -22.5931 1.7161 -45.1655 -112.2748 -11.1145 18.4801 140.9080 0.0000 -83.2868 15.3215 29.3758 -29.1840 32.8623 0.0000 -24.3270 35.4525 16.4304 -4.8119 -29.8751 -12.0184 -78.0244 -30.4514 -0.0000 29.8549 4.0537 15.5115 -14.8421 33.1476 -0.0000 26.2537 29.5546 -23.4577 1.7982
